<svg xmlns="http://www.w3.org/2000/svg" height="48" viewBox="0 96 960 960" width="48">
<style>
    .white{
        fill: white;
    }
</style>
<path class="white" d="M435 489.308 106.346 273.039v447.346q0 10.769 6.923 17.692T130.961 745h450.885v30.193H132.423q-23.185 0-39.727-16.228-16.542-16.227-16.542-38.428V271.925q0-22.202 15.994-38.429t38.813-16.227h608.255q22.176 0 38.403 16.227t16.227 38.581v209.346h-30.192V273.039L435 489.308Zm0-36.116 316.231-205.731H118.654L435 453.192Zm334.173 480.116q-48.788 0-82.961-35.015-34.173-35.014-34.173-84.319V614.231q0-27.669 18.619-46.681 18.619-19.012 47.154-19.012 27.534 0 46.573 19.012 19.038 19.012 19.038 46.681v202.731h-30.192V612.769q0-15.131-10.291-27.007-10.292-11.877-25.385-11.877-15.093 0-25.209 11.877-10.115 11.876-10.115 27.007v202.322q0 37.794 24.808 65.101 24.807 27.308 62.769 27.308 35.961 0 60.346-26.577 24.384-26.577 24.384-63.961V640.308h30.193v176.319q0 48.335-34.385 82.508-34.384 34.173-81.173 34.173ZM106.346 273.039v-25.578V745 273.039Z"/></svg>